<svg xmlns="http://www.w3.org/2000/svg" xmlns:xlink="http://www.w3.org/1999/xlink" width="726.611" height="577.102" viewBox="0 0 726.611 577.102"><defs><linearGradient id="a" x1="0.5" y1="1.783" x2="0.5" y2="0.155" gradientUnits="objectBoundingBox"><stop offset="0" stop-color="#f0f0fa"/><stop offset="0.998" stop-color="#dddcee"/></linearGradient><linearGradient id="b" x1="-11.563" y1="-0.103" x2="-11.545" y2="0.981" xlink:href="#a"/><linearGradient id="c" x1="29.711" y1="-9.076" x2="29.448" y2="-7.767" xlink:href="#a"/><linearGradient id="d" x1="-1.183" y1="0.717" x2="-0.749" y2="1.377" xlink:href="#a"/><linearGradient id="e" x1="-5.552" y1="10.512" x2="-5.483" y2="11.441" xlink:href="#a"/></defs><g transform="translate(-110.416 -101)"><g transform="translate(88.615 55.477)"><ellipse cx="303.438" cy="16.633" rx="303.438" ry="16.633" transform="translate(141.535 554.159)" fill="url(#a)"/><path d="M565.385,462.457C587.417,418.5,590,362.7,590,301.952c0-289.215-195.817-195.825-256.648-84.269C265.489,342.127,130.371,155.36,76.7,301.952c-20.885,57.042,8.561,116.55,34.863,160.5Z" transform="translate(77.916 104.257)" fill="url(#b)"/><ellipse cx="34.94" cy="64.363" rx="34.94" ry="64.363" transform="translate(233.753 100.865) rotate(-52.37)" fill="url(#c)"/><g transform="translate(617.238 379.138)" opacity="0.5"><g transform="translate(0 23.78)"><rect width="4.025" height="4.025" transform="matrix(0.707, -0.707, 0.707, 0.707, 66.928, 2.846)" fill="#fff"/><rect width="4.025" height="4.025" transform="translate(50.196 2.846) rotate(-45)" fill="#fff"/><rect width="4.025" height="4.025" transform="translate(33.464 2.846) rotate(-45)" fill="#fff"/><rect width="4.025" height="4.025" transform="translate(16.732 2.846) rotate(-45)" fill="#fff"/><rect width="4.025" height="4.025" transform="matrix(0.707, -0.707, 0.707, 0.707, 0, 2.846)" fill="#fff"/><rect width="4.025" height="4.025" transform="matrix(0.707, -0.707, 0.707, 0.707, 83.659, 2.846)" fill="#fff"/></g><g transform="translate(0 47.559)"><rect width="4.025" height="4.025" transform="matrix(0.707, -0.707, 0.707, 0.707, 66.928, 2.846)" fill="#fff"/><rect width="4.025" height="4.025" transform="translate(50.196 2.846) rotate(-45)" fill="#fff"/><rect width="4.025" height="4.025" transform="translate(33.464 2.846) rotate(-45)" fill="#fff"/><rect width="4.025" height="4.025" transform="translate(16.732 2.846) rotate(-45)" fill="#fff"/><rect width="4.025" height="4.025" transform="matrix(0.707, -0.707, 0.707, 0.707, 0, 2.846)" fill="#fff"/><rect width="4.025" height="4.025" transform="matrix(0.707, -0.707, 0.707, 0.707, 83.659, 2.846)" fill="#fff"/></g><g transform="translate(0 71.339)"><rect width="4.025" height="4.025" transform="matrix(0.707, -0.707, 0.707, 0.707, 66.928, 2.846)" fill="#fff"/><rect width="4.025" height="4.025" transform="translate(50.196 2.846) rotate(-45)" fill="#fff"/><rect width="4.025" height="4.025" transform="translate(33.464 2.846) rotate(-45)" fill="#fff"/><rect width="4.025" height="4.025" transform="translate(16.732 2.846) rotate(-45)" fill="#fff"/><rect width="4.025" height="4.025" transform="matrix(0.707, -0.707, 0.707, 0.707, 0, 2.846)" fill="#fff"/><rect width="4.025" height="4.025" transform="matrix(0.707, -0.707, 0.707, 0.707, 83.659, 2.846)" fill="#fff"/></g><g transform="translate(0 95.118)"><rect width="4.025" height="4.025" transform="matrix(0.707, -0.707, 0.707, 0.707, 66.928, 2.846)" fill="#fff"/><rect width="4.025" height="4.025" transform="translate(50.196 2.846) rotate(-45)" fill="#fff"/><rect width="4.025" height="4.025" transform="translate(33.464 2.846) rotate(-45)" fill="#fff"/><rect width="4.025" height="4.025" transform="translate(16.732 2.846) rotate(-45)" fill="#fff"/><rect width="4.025" height="4.025" transform="matrix(0.707, -0.707, 0.707, 0.707, 0, 2.846)" fill="#fff"/><rect width="4.025" height="4.025" transform="matrix(0.707, -0.707, 0.707, 0.707, 83.659, 2.846)" fill="#fff"/></g><g transform="translate(0 118.898)"><rect width="4.025" height="4.025" transform="translate(66.928 2.846) rotate(-45)" fill="#fff"/><rect width="4.025" height="4.025" transform="matrix(0.707, -0.707, 0.707, 0.707, 50.196, 2.846)" fill="#fff"/><rect width="4.025" height="4.025" transform="matrix(0.707, -0.707, 0.707, 0.707, 33.464, 2.846)" fill="#fff"/><rect width="4.025" height="4.025" transform="matrix(0.707, -0.707, 0.707, 0.707, 16.732, 2.846)" fill="#fff"/><rect width="4.025" height="4.025" transform="matrix(0.707, -0.707, 0.707, 0.707, 0, 2.846)" fill="#fff"/><rect width="4.025" height="4.025" transform="matrix(0.707, -0.707, 0.707, 0.707, 83.659, 2.846)" fill="#fff"/></g><g transform="translate(0 142.677)"><rect width="4.025" height="4.025" transform="translate(66.928 2.846) rotate(-45)" fill="#fff"/><rect width="4.025" height="4.025" transform="matrix(0.707, -0.707, 0.707, 0.707, 50.196, 2.846)" fill="#fff"/><rect width="4.025" height="4.025" transform="matrix(0.707, -0.707, 0.707, 0.707, 33.464, 2.846)" fill="#fff"/><rect width="4.025" height="4.025" transform="matrix(0.707, -0.707, 0.707, 0.707, 16.732, 2.846)" fill="#fff"/><rect width="4.025" height="4.025" transform="matrix(0.707, -0.707, 0.707, 0.707, 0, 2.846)" fill="#fff"/><rect width="4.025" height="4.025" transform="matrix(0.707, -0.707, 0.707, 0.707, 83.659, 2.846)" fill="#fff"/></g><g transform="translate(0 166.457)"><rect width="4.025" height="4.025" transform="translate(66.928 2.846) rotate(-45)" fill="#fff"/><rect width="4.025" height="4.025" transform="matrix(0.707, -0.707, 0.707, 0.707, 50.196, 2.846)" fill="#fff"/><rect width="4.025" height="4.025" transform="matrix(0.707, -0.707, 0.707, 0.707, 33.464, 2.846)" fill="#fff"/><rect width="4.025" height="4.025" transform="matrix(0.707, -0.707, 0.707, 0.707, 16.732, 2.846)" fill="#fff"/><rect width="4.025" height="4.025" transform="matrix(0.707, -0.707, 0.707, 0.707, 0, 2.846)" fill="#fff"/><rect width="4.025" height="4.025" transform="matrix(0.707, -0.707, 0.707, 0.707, 83.659, 2.846)" fill="#fff"/></g><g transform="translate(0 190.236)"><rect width="4.025" height="4.025" transform="matrix(0.707, -0.707, 0.707, 0.707, 66.928, 2.846)" fill="#fff"/><rect width="4.025" height="4.025" transform="translate(50.196 2.846) rotate(-45)" fill="#fff"/><rect width="4.025" height="4.025" transform="translate(33.464 2.846) rotate(-45)" fill="#fff"/><rect width="4.025" height="4.025" transform="translate(16.732 2.846) rotate(-45)" fill="#fff"/><rect width="4.025" height="4.025" transform="matrix(0.707, -0.707, 0.707, 0.707, 0, 2.846)" fill="#fff"/><rect width="4.025" height="4.025" transform="translate(83.659 2.846) rotate(-45)" fill="#fff"/></g><g transform="translate(0 214.015)"><rect width="4.025" height="4.025" transform="matrix(0.707, -0.707, 0.707, 0.707, 66.928, 2.846)" fill="#fff"/><rect width="4.025" height="4.025" transform="translate(50.196 2.846) rotate(-45)" fill="#fff"/><rect width="4.025" height="4.025" transform="translate(33.464 2.846) rotate(-45)" fill="#fff"/><rect width="4.025" height="4.025" transform="translate(16.732 2.846) rotate(-45)" fill="#fff"/><rect width="4.025" height="4.025" transform="matrix(0.707, -0.707, 0.707, 0.707, 0, 2.846)" fill="#fff"/><rect width="4.025" height="4.025" transform="matrix(0.707, -0.707, 0.707, 0.707, 83.659, 2.846)" fill="#fff"/></g><g transform="translate(0 0)"><rect width="4.025" height="4.025" transform="matrix(0.707, -0.707, 0.707, 0.707, 66.928, 2.846)" fill="#fff"/><rect width="4.025" height="4.025" transform="translate(50.196 2.846) rotate(-45)" fill="#fff"/><rect width="4.025" height="4.025" transform="translate(33.464 2.846) rotate(-45)" fill="#fff"/><rect width="4.025" height="4.025" transform="translate(16.732 2.846) rotate(-45)" fill="#fff"/><rect width="4.025" height="4.025" transform="matrix(0.707, -0.707, 0.707, 0.707, 0, 2.846)" fill="#fff"/><rect width="4.025" height="4.025" transform="matrix(0.707, -0.707, 0.707, 0.707, 83.659, 2.846)" fill="#fff"/></g><g transform="translate(0 237.795)"><rect width="4.025" height="4.025" transform="matrix(0.707, -0.707, 0.707, 0.707, 66.928, 2.846)" fill="#fff"/><rect width="4.025" height="4.025" transform="translate(50.196 2.846) rotate(-45)" fill="#fff"/><rect width="4.025" height="4.025" transform="translate(33.464 2.846) rotate(-45)" fill="#fff"/><rect width="4.025" height="4.025" transform="translate(16.732 2.846) rotate(-45)" fill="#fff"/><rect width="4.025" height="4.025" transform="matrix(0.707, -0.707, 0.707, 0.707, 0, 2.846)" fill="#fff"/><rect width="4.025" height="4.025" transform="matrix(0.707, -0.707, 0.707, 0.707, 83.659, 2.846)" fill="#fff"/></g></g><path d="M160.557,460.325c87.077,75.771,219.1,66.6,294.866-20.475s66.6-219.1-20.472-294.866-270.313-128.566-257.718,52.8C185.229,312.935,73.478,384.554,160.557,460.325Z" transform="translate(171.7 47.957)" fill="url(#d)"/><path d="M73.1,399.369c58.74,145.878,207.9,160.918,310.569,100.042S513.75,295.049,444.894,178.922,295.446,244.681,191.01,87.086C118.823-21.849,22.675,274.135,73.1,399.369Z" transform="translate(60.707 29.216)" fill="url(#e)"/><g transform="translate(21.8 174.611)" opacity="0.5"><g transform="translate(214.016 0)"><rect width="4.025" height="4.025" transform="matrix(0.707, -0.707, 0.707, 0.707, 0, 69.774)" fill="#fff"/><rect width="4.025" height="4.025" transform="matrix(0.707, -0.707, 0.707, 0.707, 0, 53.042)" fill="#fff"/><rect width="4.025" height="4.025" transform="translate(0 36.31) rotate(-45)" fill="#fff"/><rect width="4.025" height="4.025" transform="translate(0 19.578) rotate(-45)" fill="#fff"/><rect width="4.025" height="4.025" transform="translate(0 2.846) rotate(-45)" fill="#fff"/><rect width="4.025" height="4.025" transform="translate(0 86.506) rotate(-45)" fill="#fff"/></g><g transform="translate(190.236 0)"><rect width="4.025" height="4.025" transform="matrix(0.707, -0.707, 0.707, 0.707, 0, 69.774)" fill="#fff"/><rect width="4.025" height="4.025" transform="matrix(0.707, -0.707, 0.707, 0.707, 0, 53.042)" fill="#fff"/><rect width="4.025" height="4.025" transform="translate(0 36.31) rotate(-45)" fill="#fff"/><rect width="4.025" height="4.025" transform="translate(0 19.578) rotate(-45)" fill="#fff"/><rect width="4.025" height="4.025" transform="translate(0 2.846) rotate(-45)" fill="#fff"/><rect width="4.025" height="4.025" transform="translate(0 86.506) rotate(-45)" fill="#fff"/></g><g transform="translate(166.456 0)"><rect width="4.025" height="4.025" transform="matrix(0.707, -0.707, 0.707, 0.707, 0, 69.774)" fill="#fff"/><rect width="4.025" height="4.025" transform="matrix(0.707, -0.707, 0.707, 0.707, 0, 53.042)" fill="#fff"/><rect width="4.025" height="4.025" transform="translate(0 36.31) rotate(-45)" fill="#fff"/><rect width="4.025" height="4.025" transform="translate(0 19.578) rotate(-45)" fill="#fff"/><rect width="4.025" height="4.025" transform="translate(0 2.846) rotate(-45)" fill="#fff"/><rect width="4.025" height="4.025" transform="translate(0 86.506) rotate(-45)" fill="#fff"/></g><g transform="translate(142.677 0)"><rect width="4.025" height="4.025" transform="matrix(0.707, -0.707, 0.707, 0.707, 0, 69.774)" fill="#fff"/><rect width="4.025" height="4.025" transform="matrix(0.707, -0.707, 0.707, 0.707, 0, 53.042)" fill="#fff"/><rect width="4.025" height="4.025" transform="translate(0 36.31) rotate(-45)" fill="#fff"/><rect width="4.025" height="4.025" transform="translate(0 19.578) rotate(-45)" fill="#fff"/><rect width="4.025" height="4.025" transform="translate(0 2.846) rotate(-45)" fill="#fff"/><rect width="4.025" height="4.025" transform="translate(0 86.506) rotate(-45)" fill="#fff"/></g><g transform="translate(118.898 0)"><rect width="4.025" height="4.025" transform="translate(0 69.774) rotate(-45)" fill="#fff"/><rect width="4.025" height="4.025" transform="translate(0 53.042) rotate(-45)" fill="#fff"/><rect width="4.025" height="4.025" transform="matrix(0.707, -0.707, 0.707, 0.707, 0, 36.31)" fill="#fff"/><rect width="4.025" height="4.025" transform="matrix(0.707, -0.707, 0.707, 0.707, 0, 19.578)" fill="#fff"/><rect width="4.025" height="4.025" transform="matrix(0.707, -0.707, 0.707, 0.707, 0, 2.846)" fill="#fff"/><rect width="4.025" height="4.025" transform="translate(0 86.506) rotate(-45)" fill="#fff"/></g><g transform="translate(95.118 0)"><rect width="4.025" height="4.025" transform="translate(0 69.774) rotate(-45)" fill="#fff"/><rect width="4.025" height="4.025" transform="translate(0 53.042) rotate(-45)" fill="#fff"/><rect width="4.025" height="4.025" transform="matrix(0.707, -0.707, 0.707, 0.707, 0, 36.31)" fill="#fff"/><rect width="4.025" height="4.025" transform="matrix(0.707, -0.707, 0.707, 0.707, 0, 19.578)" fill="#fff"/><rect width="4.025" height="4.025" transform="matrix(0.707, -0.707, 0.707, 0.707, 0, 2.846)" fill="#fff"/><rect width="4.025" height="4.025" transform="translate(0 86.506) rotate(-45)" fill="#fff"/></g><g transform="translate(71.338 0)"><rect width="4.025" height="4.025" transform="translate(0 69.774) rotate(-45)" fill="#fff"/><rect width="4.025" height="4.025" transform="translate(0 53.042) rotate(-45)" fill="#fff"/><rect width="4.025" height="4.025" transform="matrix(0.707, -0.707, 0.707, 0.707, 0, 36.31)" fill="#fff"/><rect width="4.025" height="4.025" transform="matrix(0.707, -0.707, 0.707, 0.707, 0, 19.578)" fill="#fff"/><rect width="4.025" height="4.025" transform="matrix(0.707, -0.707, 0.707, 0.707, 0, 2.846)" fill="#fff"/><rect width="4.025" height="4.025" transform="translate(0 86.506) rotate(-45)" fill="#fff"/></g><g transform="translate(47.559 0)"><rect width="4.025" height="4.025" transform="matrix(0.707, -0.707, 0.707, 0.707, 0, 69.774)" fill="#fff"/><rect width="4.025" height="4.025" transform="matrix(0.707, -0.707, 0.707, 0.707, 0, 53.042)" fill="#fff"/><rect width="4.025" height="4.025" transform="translate(0 36.31) rotate(-45)" fill="#fff"/><rect width="4.025" height="4.025" transform="translate(0 19.578) rotate(-45)" fill="#fff"/><rect width="4.025" height="4.025" transform="translate(0 2.846) rotate(-45)" fill="#fff"/><rect width="4.025" height="4.025" transform="translate(0 86.506) rotate(-45)" fill="#fff"/></g><g transform="translate(23.78 0)"><rect width="4.025" height="4.025" transform="matrix(0.707, -0.707, 0.707, 0.707, 0, 69.774)" fill="#fff"/><rect width="4.025" height="4.025" transform="matrix(0.707, -0.707, 0.707, 0.707, 0, 53.042)" fill="#fff"/><rect width="4.025" height="4.025" transform="translate(0 36.31) rotate(-45)" fill="#fff"/><rect width="4.025" height="4.025" transform="translate(0 19.578) rotate(-45)" fill="#fff"/><rect width="4.025" height="4.025" transform="translate(0 2.846) rotate(-45)" fill="#fff"/><rect width="4.025" height="4.025" transform="translate(0 86.506) rotate(-45)" fill="#fff"/></g><g transform="translate(237.795 0)"><rect width="4.025" height="4.025" transform="matrix(0.707, -0.707, 0.707, 0.707, 0, 69.774)" fill="#fff"/><rect width="4.025" height="4.025" transform="matrix(0.707, -0.707, 0.707, 0.707, 0, 53.042)" fill="#fff"/><rect width="4.025" height="4.025" transform="translate(0 36.31) rotate(-45)" fill="#fff"/><rect width="4.025" height="4.025" transform="translate(0 19.578) rotate(-45)" fill="#fff"/><rect width="4.025" height="4.025" transform="translate(0 2.846) rotate(-45)" fill="#fff"/><rect width="4.025" height="4.025" transform="translate(0 86.506) rotate(-45)" fill="#fff"/></g><g transform="translate(0 0)"><rect width="4.025" height="4.025" transform="matrix(0.707, -0.707, 0.707, 0.707, 0, 69.774)" fill="#fff"/><rect width="4.025" height="4.025" transform="matrix(0.707, -0.707, 0.707, 0.707, 0, 53.042)" fill="#fff"/><rect width="4.025" height="4.025" transform="translate(0 36.31) rotate(-45)" fill="#fff"/><rect width="4.025" height="4.025" transform="translate(0 19.578) rotate(-45)" fill="#fff"/><rect width="4.025" height="4.025" transform="translate(0 2.846) rotate(-45)" fill="#fff"/><rect width="4.025" height="4.025" transform="translate(0 86.506) rotate(-45)" fill="#fff"/></g></g><g transform="translate(84.257 174.738)"><g transform="translate(134.983 91.251)"><rect width="407.243" height="282.027" rx="4.897" fill="#8888ba"/><path d="M363.669,261.095l-17.107-8.143a3.442,3.442,0,0,0-1.483-.334H275.864V236.639H219.188v15.979H150.177a3.452,3.452,0,0,0-1.467.326L131.4,261.087a3.448,3.448,0,0,0,1.467,6.568H362.189A3.447,3.447,0,0,0,363.669,261.095Z" transform="translate(-43.904 45.41)" fill="#8888ba"/><path d="M461.778,135.8H103.344V364.3H476.65V135.8Z" transform="translate(-86.376 -118.9)" fill="#dcf3f9"/></g><g transform="translate(181.983 123.609)"><rect width="313.241" height="167.388" transform="translate(0 33.283)" fill="#cce9f1"/><path d="M416.253,141.677H126.517a11.753,11.753,0,0,0-11.751,11.753V174.96h313.24V153.43A11.754,11.754,0,0,0,416.253,141.677Z" transform="translate(-114.765 -141.677)" fill="#97bbd3"/><path d="M130.05,150.81a5.058,5.058,0,1,1-5.059-5.059A5.058,5.058,0,0,1,130.05,150.81Z" transform="translate(-106.343 -135.039)" fill="#8888ba"/><path d="M136.97,150.81a5.059,5.059,0,1,1-5.059-5.059A5.058,5.058,0,0,1,136.97,150.81Z" transform="translate(-95.072 -135.039)" fill="#fbb03b"/><path d="M143.886,150.81a5.058,5.058,0,1,1-5.059-5.059A5.058,5.058,0,0,1,143.886,150.81Z" transform="translate(-83.799 -135.039)" fill="#5a5bae"/><g transform="translate(8.725 42.262)"><rect width="142.206" height="3.94" transform="translate(155.557)" fill="#fff"/><rect width="71.103" height="3.941" transform="translate(155.557 11.521)" fill="#fff"/><rect width="71.103" height="3.94" transform="translate(155.557 23.043)" fill="#fff"/><rect width="142.206" height="3.94" transform="translate(155.557 111.391)" fill="#fff"/><rect width="71.103" height="3.941" transform="translate(155.557 122.912)" fill="#fff"/><rect width="71.103" height="3.94" transform="translate(155.557 134.434)" fill="#fff"/><rect width="142.206" height="3.941" transform="translate(155.557 75.498)" fill="#fff"/><rect width="71.103" height="3.94" transform="translate(155.557 87.019)" fill="#fff"/><rect width="71.103" height="3.94" transform="translate(155.557 98.541)" fill="#fff"/><rect width="142.206" height="3.941" transform="translate(155.557 37.749)" fill="#fff"/><rect width="71.103" height="3.94" transform="translate(155.557 49.27)" fill="#fff"/><rect width="71.103" height="3.94" transform="translate(155.557 60.792)" fill="#fff"/><rect width="144.175" height="9.837" transform="translate(144.175 9.837) rotate(180)" fill="#fff"/><rect width="144.175" height="120.265" transform="translate(0 18.11)" fill="#fff"/></g></g><g transform="translate(559.016 227.398)"><g transform="translate(0)"><path d="M336.332,288.536c-1.683-2.132-3.631-4.125-4.683-6.631-1.47-3.494-.981-7.517.137-11.143s2.824-7.052,3.8-10.717a28.524,28.524,0,0,0-6.371-26.068,41.24,41.24,0,0,1-4.112-4.63c-2.669-3.989-2.685-9.179-1.975-13.928s2.054-9.463,1.767-14.256a21.4,21.4,0,0,0-7.662-15.051c-4.378-3.6-10.265-4.872-15.944-4.954v-.005h-.179l-.181,0v.005c-5.682.018-11.58,1.217-16,4.775a21.409,21.409,0,0,0-7.833,14.961c-.339,4.788.949,9.521,1.607,14.277s.584,9.944-2.13,13.9a41.81,41.81,0,0,1-4.165,4.583,28.531,28.531,0,0,0-6.668,25.994c.936,3.676,2.6,7.123,3.678,10.759s1.52,7.665.011,11.146c-1.081,2.49-3.05,4.462-4.757,6.576-6.318,7.82-9.04,19.542-3.568,27.974,2.185,3.368,5.44,5.9,8.814,8.072a52.666,52.666,0,0,0,17.125,7.4c2.679.584,5.453,1.112,8.146.431,1.793-.452,3.163-.187,5.069-.189,1.906.024,3.279-.226,5.067.247,2.685.71,5.461.213,8.148-.339a52.669,52.669,0,0,0,17.209-7.212c3.4-2.135,6.681-4.628,8.9-7.97C345.15,308.18,342.558,296.427,336.332,288.536Z" transform="translate(-258.158 -181.15)" fill="#5a5bae"/><path d="M320.609,276.61l-26.281,28.153L293.4,249.4c3.96-5.272,19.7-26.228,19.7-26.228l-19.789,21.2-.568-33.635c1.717-2.282,14.235-18.95,14.235-18.95l-14.3,15.316-.4-23.641-.476,30.33L278.134,198.8s10.933,14.9,13.623,18.569l-.536,34.185-19.563-21.44s15.721,21.429,19.484,26.554l-.878,56.071-26.715-29.275s23.864,32.531,26.6,36.259L290.024,328l4.7.026-.281-16.583C299.553,304.641,320.609,276.61,320.609,276.61Z" transform="translate(-249.375 -177.38)" fill="#8888ba"/></g><rect width="4.716" height="9.043" transform="translate(40.698 150.618)" fill="#8888ba"/><path d="M266.593,241.915h41.755l-7.822,33.013h-26Z" transform="translate(-244.415 -82.141)" fill="#8888ba"/><rect width="41.755" height="2.504" transform="translate(22.178 157.27)" fill="#5a5bae"/></g><g transform="translate(388.323 28.265)"><path d="M214.04,115.35l9.933,5.433-9.933,5.433-5.433,9.934-5.433-9.934-9.934-5.433,9.934-5.433,5.433-9.934Z" transform="translate(-193.24 -105.416)" fill="#fff"/><path d="M217.77,119.472l5.752,3.146-5.752,3.146-3.146,5.752-3.146-5.752-5.752-3.146,5.752-3.146,3.146-5.752Z" transform="translate(-172.896 -91.885)" fill="#fff"/></g><g transform="translate(501.929 121.097)"><path d="M253.946,150.655l-9.933,5.433,9.933,5.433,5.433,9.934,5.433-9.934,9.934-5.433-9.934-5.433-5.433-9.934Z" transform="translate(-224.12 -140.721)" fill="#fff"/><path d="M242.2,154.778l-5.751,3.146,5.751,3.146,3.146,5.751,3.145-5.751,5.752-3.146-5.752-3.146-3.145-5.751Z" transform="translate(-236.447 -127.19)" fill="#fff"/></g><path d="M125.93,179.68H120.8a2.74,2.74,0,0,1-2.619-1.9,20.189,20.189,0,0,0-1.328-3.195,2.741,2.741,0,0,1,.5-3.2l3.629-3.631a2.771,2.771,0,0,0,0-3.92l-2.206-2.206a2.776,2.776,0,0,0-3.92,0l-3.629,3.631a2.749,2.749,0,0,1-3.205.5,20.256,20.256,0,0,0-3.192-1.328,2.744,2.744,0,0,1-1.9-2.619v-5.127a2.772,2.772,0,0,0-2.771-2.771H97.046a2.772,2.772,0,0,0-2.771,2.771v5.127a2.744,2.744,0,0,1-1.9,2.619,20.256,20.256,0,0,0-3.192,1.328,2.748,2.748,0,0,1-3.205-.5l-3.629-3.631a2.776,2.776,0,0,0-3.92,0l-2.206,2.206a2.771,2.771,0,0,0,0,3.92l3.629,3.631a2.741,2.741,0,0,1,.5,3.2,20.187,20.187,0,0,0-1.328,3.195,2.74,2.74,0,0,1-2.619,1.9H71.283a2.772,2.772,0,0,0-2.771,2.774v3.118a2.772,2.772,0,0,0,2.771,2.774h5.127a2.74,2.74,0,0,1,2.619,1.9,20.188,20.188,0,0,0,1.328,3.195,2.741,2.741,0,0,1-.5,3.2l-3.629,3.631a2.771,2.771,0,0,0,0,3.92L78.43,206.4a2.771,2.771,0,0,0,3.92,0l3.629-3.631a2.744,2.744,0,0,1,3.205-.5,20.515,20.515,0,0,0,3.192,1.328,2.742,2.742,0,0,1,1.9,2.619v5.125a2.772,2.772,0,0,0,2.771,2.771h3.121a2.772,2.772,0,0,0,2.771-2.771v-5.127a2.741,2.741,0,0,1,1.9-2.616,20.771,20.771,0,0,0,3.192-1.328,2.744,2.744,0,0,1,3.205.5l3.629,3.631a2.771,2.771,0,0,0,3.92,0l2.206-2.206a2.771,2.771,0,0,0,0-3.92l-3.629-3.631a2.741,2.741,0,0,1-.5-3.2,20.191,20.191,0,0,0,1.328-3.195,2.74,2.74,0,0,1,2.619-1.9h5.127a2.772,2.772,0,0,0,2.771-2.774v-3.118A2.772,2.772,0,0,0,125.93,179.68ZM109.057,186.1A10.656,10.656,0,1,1,96.52,173.564,10.666,10.666,0,0,1,109.057,186.1Z" transform="translate(-8.147 1.881)" fill="#5a5bae"/><g transform="translate(0 231.884)"><path d="M53.195,232.443c-2.422,4.462-7.641,1.338-7.641,1.338s.3-1.47,2.643-2.7c1.746-.918,4.257-.158,5.146.16l2.879-.074h.045c.642.032,1.275.082,1.909.142-8.209-2.9-4.341-12.595-4.341-12.595s2.579.105,5.309,3.744c2.193,2.919,1.33,7.875,1.075,9.092a48.1,48.1,0,0,1,9.46,2.39,17.117,17.117,0,0,1-1.2-1.286c-3.129-3.747-1.749-10.857-1.749-10.857,11.209,1.441,8.977,11.982,8.311,14.4a70.092,70.092,0,0,1,10.131,6.026,14.682,14.682,0,0,1-2.211-4.877c-1.415-5.275,3.331-11.843,3.331-11.843,10.986,6.91,3.084,16.9,1.53,18.687,1.972,1.52,3.784,3.055,5.411,4.528,1.785,1.617,3.431,3.231,4.927,4.783a14.732,14.732,0,0,1-.565-7.123c.789-5.921,8.34-10.56,8.34-10.56,8,11.333-3.45,18.051-6.134,19.421a93.919,93.919,0,0,1,8.072,9.91l-.991.668a83.976,83.976,0,0,0-5.38-6.871c-4.241,13.436-18.842,6.6-18.842,6.6s.363-3.665,5.774-7.257c3.489-2.316,8.687-1.717,11.485-1.149a103.43,103.43,0,0,0-7.51-7.559c-.952-.862-1.969-1.743-3.045-2.632-3.757,12.676-17.32,6.337-17.32,6.337s.331-3.352,5.28-6.639c3.113-2.067,7.715-1.593,10.315-1.089a74.774,74.774,0,0,0-10.62-7.015c-2.322,11.987-15.079,7.154-15.079,7.154s.071-3.008,4.26-6.271c2.74-2.132,7.1-1.927,9.389-1.63a51.5,51.5,0,0,0-13.72-4.77c.2,10.873-11.569,8.769-11.569,8.769s-.418-2.545,2.6-5.956c2.345-2.653,7.147-2.879,8.569-2.884a41.5,41.5,0,0,0-5.24-.6Z" transform="translate(-45.554 -124.428)" fill="#fbb03b"/><g transform="translate(38.302)"><g transform="translate(10.817)"><path d="M117.856,355.5s24.432-55.156,6.752-106.411-60.373-66.229-60.373-66.229S89.577,212.2,74.868,257.967C60.956,301.251,87.484,355.5,87.484,355.5Z" transform="translate(-64.235 -182.856)" fill="#97bbd3"/><path d="M93.868,336.339s6.258-112.211-20.217-141.726c24.082,37.2,14.054,141.726,14.054,141.726Z" transform="translate(-48.893 -163.699)" fill="#9b9ad3"/></g><path d="M73.941,273.646h26.136c-1.041-4.6-4.8-18.516-14.183-29.01a33.283,33.283,0,0,0-25.773-11.514s7.82,8.58,9.021,24A46.918,46.918,0,0,0,73.941,273.646Z" transform="translate(-60.121 -101.007)" fill="#8888ba"/><path d="M103.076,241.566c-19.029,24.805-23.294,57.149-23.746,61.009h36.99c9.361-8.64,20.832-22.615,20.922-39.425.16-30.017,14.091-47.815,14.091-47.815S123.34,215.148,103.076,241.566Z" transform="translate(-28.822 -129.936)" fill="#8888ba"/><path d="M84.575,268.681h1.959c-3.721-8.519-13.213-28.487-22.1-32.544C73.127,241.964,81.123,260.028,84.575,268.681Z" transform="translate(-53.094 -96.041)" fill="#5a5bae"/><path d="M83.775,291.932h3.842c4.5-14.893,18.271-56.371,35.649-70.065C105.317,231.817,88.558,277.852,83.775,291.932Z" transform="translate(-21.58 -119.293)" fill="#9b9ad3"/></g><rect width="110.28" height="4.376" transform="translate(36.899 172.64)" fill="#8888ba"/></g><g transform="translate(443.891 168.794)"><path d="M260.651,182.326a6.4,6.4,0,0,0-3.058-2.779,60.518,60.518,0,0,1-6.471-3.363,13.322,13.322,0,0,1-1.956-1.714L249,176.178l-6.108,6.452-3.729.373a9.222,9.222,0,0,0,3.976,3.063c1.528.542,3.25-.237,4.857.281a6.227,6.227,0,0,1,3.55,2.895c1.346,2.5.813,5.527.894,8.359a4.252,4.252,0,0,0,.3,1.675c.239.521-.373,2.585.195,2.65.841.1,1.591-2.516,2.138-3.16a10.845,10.845,0,0,0,2.193-3.46c.576-1.541.523-1.588,1.046-2.861.673-1.643,1.047-3.368,1.785-4.985S261.374,183.948,260.651,182.326Z" transform="translate(-173.982 -133.431)" fill="#2b3146"/><path d="M236.248,187.612h0s-.245-3.068-.305-3.487a17.407,17.407,0,0,1,.907-2.74c.118-.447-.108-1.075-.468-.728a5.409,5.409,0,0,0-.765,1.394l-.657,2.572-.281,1.7-1.549-.9.005,11.283,4.423-.334Z" transform="translate(-183.814 -123.512)" fill="#f27677"/><path d="M267.269,199.413s-14.154-8.814-16.675-12.3c-1.841-2.545-3.589-7.065-4.4-9.316.56-9.208-2.419-16.712-8.1-18.529-7.686-2.458-17.4,6.431-21.7,19.857s-1.549,26.3,6.137,28.765c4.733,1.515,10.234-1.278,14.767-6.781,2.979-.047,6.744.308,9.387,2.027,5.02,3.271,12.85,8.222,12.85,8.222l.568,11.2s2.322,3.387,3.726,4.178,3.6-.024,3.6-.024l.694-1.1L266,220.921l.954-7.507s4.683-2.627,5.566-5.632S271.284,201.992,267.269,199.413Z" transform="translate(-214.374 -158.862)" fill="#8888ba"/><path d="M240.28,185.506c-3.81,11.9-12.056,19.894-18.421,17.859s-8.438-13.336-4.628-25.237,12.056-19.9,18.419-17.859S244.087,173.606,240.28,185.506Z" transform="translate(-212.83 -157.084)" fill="#cce9f1"/><path d="M231.176,170.564l-6.984-2.574-2.95,9.087,5.6,3.707S230.395,175.244,231.176,170.564Z" transform="translate(-203.184 -143.988)" fill="#808184"/><path d="M226.463,173.466c-.8,2.516-2.7,4.157-4.225,3.668s-2.117-2.924-1.312-5.44,2.7-4.16,4.228-3.671S227.27,170.95,226.463,173.466Z" transform="translate(-204.287 -144.074)" fill="#59595c"/><g transform="translate(44.412 54.463)"><path d="M231.276,180.148c.121-.4.8-.557.823-.565l.039-.008.045,1.375-.045-.016C232.1,180.919,231.155,180.564,231.276,180.148Z" transform="translate(-231.265 -179.575)" fill="#f27677"/><path d="M231.352,180.7c.081-.229.684-.468.71-.479l.042-.016.018.46c.134.061.9.41,1.1.81a.562.562,0,0,1-.187.676.327.327,0,0,1-.355.063c-.126-.053-.318-.137-.513-.224l.008.213c.134.058.9.408,1.1.807a.61.61,0,0,1-.242.723.243.243,0,0,1-.255.037c-.126-.053-.339-.145-.563-.242l.011.234a1.812,1.812,0,0,1,.773.573.406.406,0,0,1-.15.5.193.193,0,0,1-.137.055.185.185,0,0,1-.092-.016c-.147-.063-.423-.181-.642-.281a.743.743,0,0,1-.316-.8c.047-.129.31-.258.439-.315l-.26-.116a1.032,1.032,0,0,1-.439-1.123c.047-.137.273-.273.476-.373l-.089-.039A1.03,1.03,0,0,1,231.352,180.7Z" transform="translate(-231.176 -178.548)" fill="#f27677"/></g><rect width="9.288" height="12.254" transform="translate(72.087 60.657)" fill="#f27677"/><path d="M265.652,184.52s13.891,4.643,16.481,6.584,17.354,22,17.68,24.2-12.119,24.934-12.119,24.934l-4.336-3,6.692-20.472-10.78-8.643L279.6,251.9l-33.969-.163,2.44-47.029-11.914,3.855a1.911,1.911,0,0,1-2.5-1.622l-.9-17.556,5.317-.7,2.309,7.052,16.223-8.619S254.709,192.1,265.652,184.52Z" transform="translate(-184.436 -117.055)" fill="#fbb03b"/><path d="M259.8,206.991a16.811,16.811,0,0,0-1.562,3.949c-.263,1.693-.387,3.881-2.4,5.509s-6.75,1.475-6.439.389,2.248-2.406,2.172-3.492-1.165-1.4-.234-2.327,2.855-1.551,3.368-2.792,1.675-3.647,1.675-3.647Z" transform="translate(-157.329 -84.369)" fill="#f27677"/><path d="M239.95,180.891s-1.8,12.045,1.643,14.32,8.653-.25,10.47-1.359a10.614,10.614,0,0,0,3.118-3.752,7.6,7.6,0,0,0,1.578-3.263c.105-1.459.226-3.347-1.212-2.566-2.282,1.236-1.168.25-1.168.25s.957-1.4-.471-3.355S240.694,174.315,239.95,180.891Z" transform="translate(-173.467 -128.374)" fill="#f27677"/><g transform="translate(45.58 134.61)"><g transform="translate(47.362 96.66)"><path d="M255.564,246.918l-.076,3.984c-.387-.032-5.33-.1-5.33-.1l.076-3.981Z" transform="translate(-249.01 -246.818)" fill="#f27677"/><path d="M257.548,247.844s11.417,6,11.653,6.111c.1.047.673.195,1.275.342a2.008,2.008,0,0,1,1.586,1.954,2.1,2.1,0,0,1-.066.636c-.121.163-22.215-.426-22.215-.426s-.381-7.107.794-7.362S255.726,249.861,257.548,247.844Z" transform="translate(-249.722 -245.146)" fill="#393768"/><g transform="translate(13.291 6.13)"><path d="M255.855,249.149l-1.078,1.859.705.409,1.095-1.887Z" transform="translate(-254.777 -249.149)" fill="#fff"/><path d="M256.308,249.4l-1.03,1.776.705.409,1.047-1.8Z" transform="translate(-253.959 -248.733)" fill="#fff"/><path d="M256.741,249.646l-.991,1.71.7.409,1.008-1.739Z" transform="translate(-253.19 -248.34)" fill="#fff"/></g></g><g transform="translate(0 96.876)"><path d="M238.165,246.945l-.394,3.984c.389-.029,5.332-.045,5.332-.045l.239-3.983Z" transform="translate(-221.832 -246.9)" fill="#f27677"/><path d="M246.315,247.9s-11.482,5.877-11.719,5.982c-.105.047-.676.187-1.28.326a2.008,2.008,0,0,0-1.607,1.938,2.122,2.122,0,0,0,.058.636c.121.163,22.221-.179,22.221-.179s.458-7.1-.713-7.373S248.116,249.937,246.315,247.9Z" transform="translate(-231.709 -245.272)" fill="#393768"/><g transform="translate(4.813 5.986)"><path d="M235.211,249.176l1.058,1.871-.71.4-1.074-1.9Z" transform="translate(-231.998 -249.176)" fill="#fff"/><path d="M234.725,249.426l1.011,1.787-.71.4L234,249.8Z" transform="translate(-232.791 -248.769)" fill="#fff"/><path d="M234.265,249.662l.973,1.721-.709.4-.989-1.75Z" transform="translate(-233.54 -248.385)" fill="#fff"/></g></g><path d="M239.044,210.056l-1.923,97.491,7.524-.256,15.326-97.144Z" transform="translate(-222.891 -210.056)" fill="#393768"/><path d="M242.491,212.1l20.841,95.411h8.776l-7.154-97.342-23.273-.089Z" transform="translate(-215.46 -210.02)" fill="#393768"/></g><path d="M260.042,189.639l-22.523-5.219s-.184-2.343,3.473-1.725,1.307-6.66,9.579-8.472a11.4,11.4,0,0,1,13.37,6.8c.791,2.38-1.3,9.463-1.3,9.463Z" transform="translate(-176.665 -134.364)" fill="#ffd648"/></g><g transform="translate(427.859 356.81)"><path d="M210.675,255.8h47.881a2.4,2.4,0,0,0,2.185-3.384l-1.115-2.474a2.4,2.4,0,0,0-2.185-1.412H211.5a2.4,2.4,0,0,0-2.274,1.641l-.826,2.474A2.4,2.4,0,0,0,210.675,255.8Z" transform="translate(-208.277 -200.776)" fill="#fbb03b"/><g transform="translate(8.415)"><path d="M224.671,232.835c-1.1-3.289-4.946-3.289-6.042,0l-2.277,6.828h10.6Z" transform="translate(-203.534 -230.368)" fill="#fff"/><path d="M232.882,237.148H216.6l-2.143,6.43h20.57Z" transform="translate(-206.624 -219.32)" fill="#fff"/><path d="M214.7,242.839l-2.144,6.43H243.1l-2.143-6.43Z" transform="translate(-209.715 -210.048)" fill="#fff"/><path d="M228.71,233.9h-10.6l-2.844,8.532h16.283Z" transform="translate(-205.296 -224.607)" fill="#fbb03b"/><path d="M236.788,239.594h-20.57l-2.844,8.532h26.258Z" transform="translate(-208.386 -215.335)" fill="#fbb03b"/><path d="M211.477,253.816H247.71l-2.844-8.532H214.321Z" transform="translate(-211.477 -206.063)" fill="#fbb03b"/></g></g><g transform="translate(117.516 254.253)"><g transform="translate(16.968)"><rect width="16.968" height="156.89" transform="translate(0 0.69)" fill="#2b3146"/><rect width="16.968" height="156.889" transform="translate(129.418)" fill="#2b3146"/></g><g transform="translate(0 69.653)"><path d="M126.8,258.494h20.227l15.521-40.64H142.323Z" transform="translate(-30.687 -217.854)" fill="#fbb03b"/><path d="M108.679,258.494H128.9l15.521-40.64H124.2Z" transform="translate(-60.216 -217.854)" fill="#fbb03b"/><path d="M90.248,258.494h21.036l15.521-40.64H90.248Z" transform="translate(-90.248 -217.854)" fill="#fbb03b"/><path d="M160.446,217.854l-15.521,40.64h36.557v-40.64Z" transform="translate(-1.158 -217.854)" fill="#fbb03b"/><path d="M113.77,217.854l-15.521,40.64h27.426l15.521-40.64Z" transform="translate(-77.212 -217.854)" fill="#fff"/><path d="M131.893,217.854l-15.521,40.64H143.8l15.521-40.64Z" transform="translate(-47.683 -217.854)" fill="#fff"/><path d="M150.015,217.854l-15.521,40.64H161.92l15.521-40.64Z" transform="translate(-18.153 -217.854)" fill="#fff"/></g><g transform="translate(0 13.541)"><path d="M126.8,237.153h20.227l15.521-40.64H142.323Z" transform="translate(-30.687 -196.513)" fill="#fbb03b"/><path d="M108.679,237.153H128.9l15.521-40.64H124.2Z" transform="translate(-60.216 -196.513)" fill="#fbb03b"/><path d="M90.248,237.153h21.036l15.521-40.64H90.248Z" transform="translate(-90.248 -196.513)" fill="#fbb03b"/><path d="M160.446,196.513l-15.521,40.64h36.557v-40.64Z" transform="translate(-1.158 -196.513)" fill="#fbb03b"/><path d="M113.77,196.513l-15.521,40.64h27.426l15.521-40.64Z" transform="translate(-77.212 -196.513)" fill="#fff"/><path d="M131.893,196.513l-15.521,40.64H143.8l15.521-40.64Z" transform="translate(-47.683 -196.513)" fill="#fff"/><path d="M150.015,196.513l-15.521,40.64H161.92l15.521-40.64Z" transform="translate(-18.153 -196.513)" fill="#fff"/></g><rect width="136.592" height="71.571" rx="4.444" transform="translate(21.866 26.117)" fill="#ffd648"/><g transform="translate(26.805 29.998)"><rect width="124.083" height="60.308" rx="3.485" transform="translate(1.315 1.316)" fill="#ffd648"/><path d="M216.679,265.711H110.92a10.491,10.491,0,0,1-10.478-10.478V213.25a10.491,10.491,0,0,1,10.478-10.478H216.679a10.489,10.489,0,0,1,10.475,10.478v41.983A10.489,10.489,0,0,1,216.679,265.711ZM110.92,205.4a7.857,7.857,0,0,0-7.849,7.849v41.983a7.857,7.857,0,0,0,7.849,7.849H216.679a7.857,7.857,0,0,0,7.846-7.849V213.25a7.857,7.857,0,0,0-7.846-7.849Z" transform="translate(-100.442 -202.772)" fill="#2b3146"/></g></g><g transform="translate(308.499 254.214)"><g transform="translate(0 0)"><rect width="67.416" height="67.416" rx="3.582" transform="translate(47.67) rotate(45)" fill="#ffd648"/><g transform="translate(9.05 9.049)"><path d="M240.325,225.59l-27.561-27.561a11.064,11.064,0,0,0-15.645,0L169.563,225.59a11.064,11.064,0,0,0,0,15.642l27.558,27.558a11.058,11.058,0,0,0,15.645,0l27.561-27.558a11.061,11.061,0,0,0,0-15.642ZM238,238.908l-27.561,27.561a7.962,7.962,0,0,1-10.993,0h0l-27.561-27.561a7.781,7.781,0,0,1,0-10.993l27.558-27.561a7.959,7.959,0,0,1,10.993,0L238,227.915a7.77,7.77,0,0,1,0,10.993Z" transform="translate(-166.324 -194.79)" fill="#2b3146"/><path d="M180.4,231.415a1.16,1.16,0,0,0,.539.415,4.009,4.009,0,0,0,1.033.263,14.382,14.382,0,0,0,3.25,0,4.034,4.034,0,0,0,1.049-.263,1.161,1.161,0,0,0,.539-.415,1.273,1.273,0,0,0,.184-.555l.8-27.977a1.211,1.211,0,0,0-.2-.694,1.486,1.486,0,0,0-.678-.492,5.209,5.209,0,0,0-1.28-.31,15.857,15.857,0,0,0-2.033-.108,18.346,18.346,0,0,0-2.048.095,4.829,4.829,0,0,0-1.3.292,1.329,1.329,0,0,0-.66.507,1.349,1.349,0,0,0-.187.71l.8,27.977A1.273,1.273,0,0,0,180.4,231.415Z" transform="translate(-144.989 -184.215)" fill="#2b3146"/><path d="M187.14,215.22a2.822,2.822,0,0,0-1.341-.77,7.943,7.943,0,0,0-2.1-.231,8.127,8.127,0,0,0-2.111.231,2.716,2.716,0,0,0-1.338.77,3.057,3.057,0,0,0-.694,1.417,9.914,9.914,0,0,0-.2,2.172,9.521,9.521,0,0,0,.2,2.125,2.962,2.962,0,0,0,.694,1.388,2.8,2.8,0,0,0,1.338.755,8.13,8.13,0,0,0,2.111.231,7.946,7.946,0,0,0,2.1-.231,2.913,2.913,0,0,0,1.341-.755,2.881,2.881,0,0,0,.707-1.388,9.52,9.52,0,0,0,.2-2.125,9.913,9.913,0,0,0-.2-2.172A2.972,2.972,0,0,0,187.14,215.22Z" transform="translate(-145.084 -163.135)" fill="#2b3146"/></g></g><path d="M190.93,287.75V226.031H186.6V287.75c-5.874.2-10.349,1.162-10.349,2.332,0,1.312,5.6,2.374,12.513,2.374s12.513-1.062,12.513-2.374C201.279,288.912,196.8,287.947,190.93,287.75Z" transform="translate(-141.096 -134.838)" fill="#2b3146"/></g><path d="M306.846,171.651h-.095V169.1a18.846,18.846,0,0,0-37.692,0v2.548h-.092a4.9,4.9,0,0,0-4.9,4.9v32.023a4.9,4.9,0,0,0,4.9,4.9h37.879a4.9,4.9,0,0,0,4.9-4.9V176.549A4.9,4.9,0,0,0,306.846,171.651Zm-15.616,17.9v14.761h-6.65V189.551a6.564,6.564,0,1,1,6.65,0Zm7.675-17.9h-22V169.1a11,11,0,0,1,22,0Z" transform="translate(310.484 -4.086)" fill="#8888ba"/><g transform="translate(238.8 32.441)"><path d="M187.483,126.561l-3.768,2.3a.608.608,0,0,1-.923-.468,23.558,23.558,0,0,0-43.243-10.615,1.979,1.979,0,0,0,1.654,3.063,1.956,1.956,0,0,0,1.646-.883,19.6,19.6,0,0,1,35.933,8.154.61.61,0,0,1-.923.594l-3.513-2.14a.61.61,0,0,0-.855.81l6.886,12.816a.608.608,0,0,0,1.073,0l6.886-12.816A.61.61,0,0,0,187.483,126.561Z" transform="translate(-131.729 -107.004)" fill="#fbb03b"/><path d="M183.584,132.779a1.95,1.95,0,0,0-1.646.883,19.6,19.6,0,0,1-35.933-8.154.61.61,0,0,1,.923-.6l3.513,2.14a.609.609,0,0,0,.855-.807l-6.886-12.816a.61.61,0,0,0-1.075,0l-6.884,12.816a.608.608,0,0,0,.852.807l3.768-2.3a.611.611,0,0,1,.926.468,23.557,23.557,0,0,0,43.243,10.615A1.979,1.979,0,0,0,183.584,132.779Z" transform="translate(-136.374 -97.059)" fill="#fbb03b"/></g><g transform="translate(83.735)"><path d="M104.811,110.547,102.7,97.771a6.652,6.652,0,0,1,5-2c5.99,0,12.313.665,13.312,4.993s-.168,8.985,1.162,10.815,2.159,3.392-1.244,2.608-7.575,1.551-7.575,1.551l-5.953-3.163-2.593.92Z" transform="translate(-36.169 -92.863)" fill="#393768"/><g transform="translate(20.798 124.188)"><path d="M92.681,141.9l-.6,4.162c.408.034,5.572.812,5.572.812l.6-4.162Z" transform="translate(-74.285 -141.897)" fill="#c9937a"/><path d="M101.933,142.843s-12.926,4.289-13.192,4.36c-.116.032-.736.087-1.388.134a2.124,2.124,0,0,0-1.988,1.767,2.221,2.221,0,0,0-.042.671c.1.192,23.22,3.384,23.22,3.384s1.62-7.339.439-7.807S103.485,145.259,101.933,142.843Z" transform="translate(-85.31 -140.356)" fill="#393768"/><g transform="translate(5.598 4.936)"><path d="M89.321,143.774l.8,2.123-.805.3-.815-2.155Z" transform="translate(-85.703 -143.774)" fill="#fff"/><path d="M88.774,143.957l.767,2.028-.805.3-.78-2.06Z" transform="translate(-86.595 -143.477)" fill="#fff"/><path d="M88.256,144.129l.739,1.952-.8.3-.751-1.985Z" transform="translate(-87.439 -143.195)" fill="#fff"/></g></g><g transform="translate(0 114.234)"><path d="M86.749,138.6l-2.411,3.447c.352.213,4.615,3.226,4.615,3.226l2.411-3.447Z" transform="translate(-66.095 -137.319)" fill="#c9937a"/><path d="M95.353,140.816s-13.476-1.972-13.744-2.027c-.121-.024-.7-.255-1.3-.5a2.119,2.119,0,0,0-2.566.684,2.17,2.17,0,0,0-.339.581C77.4,139.767,96.629,153,96.629,153s4.741-5.832,3.9-6.779S95.656,143.671,95.353,140.816Z" transform="translate(-77.4 -138.112)" fill="#393768"/><g transform="translate(6.24 1.019)"><path d="M81.969,138.784l-.235,2.257-.856-.089.239-2.291Z" transform="translate(-77.974 -138.236)" fill="#fff"/><path d="M81.391,138.7l-.225,2.157-.856-.089.228-2.191Z" transform="translate(-78.898 -138.371)" fill="#fff"/><path d="M80.846,138.623l-.217,2.076-.856-.089.22-2.111Z" transform="translate(-79.773 -138.499)" fill="#fff"/></g></g><path d="M135.483,123.5s-27.264-3.876-29.925-1.012-20.633,45.294-20.633,45.294l5.824,3.326,22.794-32.278,24.792-10.315Z" transform="translate(-65.139 -51.058)" fill="#393768"/><path d="M102.77,104.382s.557,5.656,2.6,6.155.557,3.329,4.086,4.325,6.129-.831,6.871,0,3.9,7.157,3.9,7.157l1.486,1.83,4.457-13.478-4.27-5.324s-4.643,1.83-5.014-1.5-5.572-4.16-5.385-.831S106.483,96.394,102.77,104.382Z" transform="translate(-36.063 -84.999)" fill="#c9937a"/><path d="M115.955,105.437s4.927-4.42,5.427-1.425,8.819,2.661,12.313,16.639,4.991,37.269,4.991,41.928-4.991,11.151-7.82,11.151,1.664-5.493-7.155-14.811-16.639-9.816-16.639-9.816.536-19.92,2.035-25.245S112.524,106.7,115.955,105.437Z" transform="translate(-29.052 -81.134)" fill="#fbb03b"/><path d="M154.994,143s-18.419-.4-28.618-1.283c-8.393-.726-17.683-2.006-17.683-2.006l-8.275,36.9-8.154-1,3.663-47.752s-1.188-7.318,13.975-5.824,36.441.831,36.441.831l5.322,5.159Z" transform="translate(-53.179 -50.404)" fill="#393768"/><path d="M114.558,120.15s-10.725-1.6-11.922-1.6-4.87,1.438-6.147,3.195-2.874,4.628-1.117,3.991,3.032-2.556,7.662-1.6,6.721,1.975,11.064,1.428S114.558,120.15,114.558,120.15Z" transform="translate(-49.384 -55.752)" fill="#c9937a"/><path d="M92.629,115.381l13.549,16.382h-5.435L86.212,114.9Z" transform="translate(-63.043 -61.69)" fill="#393768"/><path d="M126.5,117.007s3.082-14,9.016-7.6,3.153,15.371,2.054,24.9c-1.057,9.166-5.527,18.024-12.4,17.443s-23.275-8.727-23.275-8.727l.878-5.932,20.412,2.558S123.589,125.266,126.5,117.007Z" transform="translate(-37.495 -73.373)" fill="#f77a1e"/><rect width="21.558" height="1.59" transform="translate(37.7 69.17)" fill="#393768"/><path d="M106.631,102.588s3.36,3.939,3.487,5.327-.139,5.159-1.262,5.556a22.491,22.491,0,0,1-3.416.684l2.056.279s4.225.294,4.478-.368,2.106-3.076,1.444-4.977a25.85,25.85,0,0,0-1.72-3.752l-4.47-4.246Z" transform="translate(-31.712 -84.201)" fill="#393768"/><path d="M121.829,104.484l-20.036,12.479s-1.783-1.533,1.312-3.721-3.736-5.677,1-12.91a11.694,11.694,0,0,1,14.5-4.778c2.248,1.123,5.708,7.665,5.708,7.665Z" transform="translate(-38.486 -94.666)" fill="#ffd648"/></g></g></g><text transform="translate(381 541)" fill="#2b3146" font-size="18" font-family="SegoeUI, Segoe UI"><tspan x="-35.499" y="0">COMING</tspan><tspan x="-25.084" y="20">SOON</tspan></text></g></svg>